<svg width="311" height="137" viewBox="0 0 311 137" fill="none" xmlns="http://www.w3.org/2000/svg">
<g filter="url(#filter0_d_276:5)">
<path d="M6 79V77.5C5.52917 77.5 5.08566 77.7211 4.80223 78.097C4.5188 78.473 4.42835 78.9602 4.55794 79.4129L6 79ZM18.0548 121.105L16.6127 121.518C16.7271 121.918 17.0021 122.252 17.3721 122.441L18.0548 121.105ZM47.4384 121.105L48.1776 122.41C48.505 122.225 48.7508 121.923 48.8661 121.565L47.4384 121.105ZM61 79L62.4278 79.4599C62.5748 79.0035 62.4947 78.5043 62.2124 78.1168C61.9301 77.7292 61.4795 77.5 61 77.5V79ZM33.5 129L32.8173 130.336C33.2663 130.565 33.8005 130.554 34.2393 130.305L33.5 129ZM4.55794 79.4129L16.6127 121.518L19.4969 120.692L7.44206 78.5871L4.55794 79.4129ZM48.8661 121.565L62.4278 79.4599L59.5722 78.5401L46.0106 120.645L48.8661 121.565ZM17.3721 122.441L32.8173 130.336L34.1827 127.664L18.7375 119.77L17.3721 122.441ZM34.2393 130.305L48.1776 122.41L46.6991 119.8L32.7607 127.695L34.2393 130.305ZM61 77.5H33.5V80.5H61V77.5ZM33.5 77.5H6V80.5H33.5V77.5Z" fill="#47729D"/>
</g>
<g filter="url(#filter1_d_276:5)">
<path d="M57 90.5C73.5 79 67.5 116.5 51.5 109" stroke="#47729D" stroke-width="3"/>
</g>
<g filter="url(#filter2_d_276:5)">
<path d="M39.7664 30.5041C28.3638 18.9192 29.9524 3.71362 41.6817 4.0041C53.411 4.29458 54.7819 23.3322 39.7664 30.5041ZM39.7664 30.5041C52.4093 47.5041 46.4597 55.5041 39.7664 55.5041" stroke="#47729D" stroke-width="3" stroke-linecap="round" stroke-linejoin="round"/>
</g>
<g filter="url(#filter3_d_276:5)">
<path d="M28.5 27C24.2857 30.3333 20.7382 30.933 28.5 46C37 62.5 26.6933 69 20 69" stroke="#47729D" stroke-width="3" stroke-linecap="round"/>
</g>
<g filter="url(#filter4_d_276:5)">
<path d="M102.55 117.5C99.85 117.5 97.2333 117.117 94.7 116.35C92.2 115.583 90.2167 114.567 88.75 113.3L91 108.25C92.4333 109.383 94.1833 110.317 96.25 111.05C98.35 111.75 100.45 112.1 102.55 112.1C105.15 112.1 107.083 111.683 108.35 110.85C109.65 110.017 110.3 108.917 110.3 107.55C110.3 106.55 109.933 105.733 109.2 105.1C108.5 104.433 107.6 103.917 106.5 103.55C105.4 103.183 103.9 102.767 102 102.3C99.3333 101.667 97.1667 101.033 95.5 100.4C93.8667 99.7667 92.45 98.7833 91.25 97.45C90.0833 96.0833 89.5 94.25 89.5 91.95C89.5 90.0167 90.0167 88.2667 91.05 86.7C92.1167 85.1 93.7 83.8333 95.8 82.9C97.9333 81.9667 100.533 81.5 103.6 81.5C105.733 81.5 107.833 81.7667 109.9 82.3C111.967 82.8333 113.75 83.6 115.25 84.6L113.2 89.65C111.667 88.75 110.067 88.0667 108.4 87.6C106.733 87.1333 105.117 86.9 103.55 86.9C100.983 86.9 99.0667 87.3333 97.8 88.2C96.5667 89.0667 95.95 90.2167 95.95 91.65C95.95 92.65 96.3 93.4667 97 94.1C97.7333 94.7333 98.65 95.2333 99.75 95.6C100.85 95.9667 102.35 96.3833 104.25 96.85C106.85 97.45 108.983 98.0833 110.65 98.75C112.317 99.3833 113.733 100.367 114.9 101.7C116.1 103.033 116.7 104.833 116.7 107.1C116.7 109.033 116.167 110.783 115.1 112.35C114.067 113.917 112.483 115.167 110.35 116.1C108.217 117.033 105.617 117.5 102.55 117.5ZM150.395 111.55V117H124.145V82H149.695V87.45H130.645V96.55H147.545V101.9H130.645V111.55H150.395ZM173.041 82C176.075 82 178.708 82.5 180.941 83.5C183.208 84.5 184.941 85.9333 186.141 87.8C187.341 89.6667 187.941 91.8833 187.941 94.45C187.941 96.9833 187.341 99.2 186.141 101.1C184.941 102.967 183.208 104.4 180.941 105.4C178.708 106.4 176.075 106.9 173.041 106.9H165.141V117H158.641V82H173.041ZM172.741 101.4C175.575 101.4 177.725 100.8 179.191 99.6C180.658 98.4 181.391 96.6833 181.391 94.45C181.391 92.2167 180.658 90.5 179.191 89.3C177.725 88.1 175.575 87.5 172.741 87.5H165.141V101.4H172.741ZM218.332 117L211.182 106.75C210.882 106.783 210.432 106.8 209.832 106.8H201.932V117H195.432V82H209.832C212.866 82 215.499 82.5 217.732 83.5C219.999 84.5 221.732 85.9333 222.932 87.8C224.132 89.6667 224.732 91.8833 224.732 94.45C224.732 97.0833 224.082 99.35 222.782 101.25C221.516 103.15 219.682 104.567 217.282 105.5L225.332 117H218.332ZM218.182 94.45C218.182 92.2167 217.449 90.5 215.982 89.3C214.516 88.1 212.366 87.5 209.532 87.5H201.932V101.45H209.532C212.366 101.45 214.516 100.85 215.982 99.65C217.449 98.4167 218.182 96.6833 218.182 94.45ZM249.355 117.5C245.788 117.5 242.571 116.733 239.705 115.2C236.838 113.633 234.588 111.483 232.955 108.75C231.321 105.983 230.505 102.9 230.505 99.5C230.505 96.1 231.321 93.0333 232.955 90.3C234.588 87.5333 236.838 85.3833 239.705 83.85C242.571 82.2833 245.788 81.5 249.355 81.5C252.921 81.5 256.138 82.2833 259.005 83.85C261.871 85.3833 264.121 87.5167 265.755 90.25C267.388 92.9833 268.205 96.0667 268.205 99.5C268.205 102.933 267.388 106.017 265.755 108.75C264.121 111.483 261.871 113.633 259.005 115.2C256.138 116.733 252.921 117.5 249.355 117.5ZM249.355 111.8C251.688 111.8 253.788 111.283 255.655 110.25C257.521 109.183 258.988 107.717 260.055 105.85C261.121 103.95 261.655 101.833 261.655 99.5C261.655 97.1667 261.121 95.0667 260.055 93.2C258.988 91.3 257.521 89.8333 255.655 88.8C253.788 87.7333 251.688 87.2 249.355 87.2C247.021 87.2 244.921 87.7333 243.055 88.8C241.188 89.8333 239.721 91.3 238.655 93.2C237.588 95.0667 237.055 97.1667 237.055 99.5C237.055 101.833 237.588 103.95 238.655 105.85C239.721 107.717 241.188 109.183 243.055 110.25C244.921 111.283 247.021 111.8 249.355 111.8ZM299.995 99.1H306.145V113.05C304.345 114.483 302.245 115.583 299.845 116.35C297.445 117.117 294.978 117.5 292.445 117.5C288.878 117.5 285.661 116.733 282.795 115.2C279.928 113.633 277.678 111.483 276.045 108.75C274.411 106.017 273.595 102.933 273.595 99.5C273.595 96.0667 274.411 92.9833 276.045 90.25C277.678 87.5167 279.928 85.3833 282.795 83.85C285.695 82.2833 288.945 81.5 292.545 81.5C295.478 81.5 298.145 81.9833 300.545 82.95C302.945 83.9167 304.961 85.3333 306.595 87.2L302.495 91.2C299.828 88.5333 296.611 87.2 292.845 87.2C290.378 87.2 288.178 87.7167 286.245 88.75C284.345 89.7833 282.845 91.2333 281.745 93.1C280.678 94.9667 280.145 97.1 280.145 99.5C280.145 101.833 280.678 103.933 281.745 105.8C282.845 107.667 284.345 109.133 286.245 110.2C288.178 111.267 290.361 111.8 292.795 111.8C295.528 111.8 297.928 111.2 299.995 110V99.1Z" fill="#47729D"/>
</g>
<defs>
<filter id="filter0_d_276:5" x="0.499985" y="75.5" width="66" height="61" filterUnits="userSpaceOnUse" color-interpolation-filters="sRGB">
<feFlood flood-opacity="0" result="BackgroundImageFix"/>
<feColorMatrix in="SourceAlpha" type="matrix" values="0 0 0 0 0 0 0 0 0 0 0 0 0 0 0 0 0 0 127 0" result="hardAlpha"/>
<feOffset dy="2"/>
<feGaussianBlur stdDeviation="2"/>
<feColorMatrix type="matrix" values="0 0 0 0 0 0 0 0 0 0 0 0 0 0 0 0 0 0 0.3 0"/>
<feBlend mode="normal" in2="BackgroundImageFix" result="effect1_dropShadow_276:5"/>
<feBlend mode="normal" in="SourceGraphic" in2="effect1_dropShadow_276:5" result="shape"/>
</filter>
<filter id="filter1_d_276:5" x="46.8633" y="84.7903" width="25.4474" height="32.7103" filterUnits="userSpaceOnUse" color-interpolation-filters="sRGB">
<feFlood flood-opacity="0" result="BackgroundImageFix"/>
<feColorMatrix in="SourceAlpha" type="matrix" values="0 0 0 0 0 0 0 0 0 0 0 0 0 0 0 0 0 0 127 0" result="hardAlpha"/>
<feOffset dy="2"/>
<feGaussianBlur stdDeviation="2"/>
<feColorMatrix type="matrix" values="0 0 0 0 0 0 0 0 0 0 0 0 0 0 0 0 0 0 0.3 0"/>
<feBlend mode="normal" in2="BackgroundImageFix" result="effect1_dropShadow_276:5"/>
<feBlend mode="normal" in="SourceGraphic" in2="effect1_dropShadow_276:5" result="shape"/>
</filter>
<filter id="filter2_d_276:5" x="26.4998" y="0.500031" width="29.7545" height="62.5041" filterUnits="userSpaceOnUse" color-interpolation-filters="sRGB">
<feFlood flood-opacity="0" result="BackgroundImageFix"/>
<feColorMatrix in="SourceAlpha" type="matrix" values="0 0 0 0 0 0 0 0 0 0 0 0 0 0 0 0 0 0 127 0" result="hardAlpha"/>
<feOffset dy="2"/>
<feGaussianBlur stdDeviation="2"/>
<feColorMatrix type="matrix" values="0 0 0 0 0 0 0 0 0 0 0 0 0 0 0 0 0 0 0.3 0"/>
<feBlend mode="normal" in2="BackgroundImageFix" result="effect1_dropShadow_276:5"/>
<feBlend mode="normal" in="SourceGraphic" in2="effect1_dropShadow_276:5" result="shape"/>
</filter>
<filter id="filter3_d_276:5" x="14.5" y="23.4999" width="22.7138" height="53.0001" filterUnits="userSpaceOnUse" color-interpolation-filters="sRGB">
<feFlood flood-opacity="0" result="BackgroundImageFix"/>
<feColorMatrix in="SourceAlpha" type="matrix" values="0 0 0 0 0 0 0 0 0 0 0 0 0 0 0 0 0 0 127 0" result="hardAlpha"/>
<feOffset dy="2"/>
<feGaussianBlur stdDeviation="2"/>
<feColorMatrix type="matrix" values="0 0 0 0 0 0 0 0 0 0 0 0 0 0 0 0 0 0 0.3 0"/>
<feBlend mode="normal" in2="BackgroundImageFix" result="effect1_dropShadow_276:5"/>
<feBlend mode="normal" in="SourceGraphic" in2="effect1_dropShadow_276:5" result="shape"/>
</filter>
<filter id="filter4_d_276:5" x="84.75" y="79.5" width="225.845" height="44" filterUnits="userSpaceOnUse" color-interpolation-filters="sRGB">
<feFlood flood-opacity="0" result="BackgroundImageFix"/>
<feColorMatrix in="SourceAlpha" type="matrix" values="0 0 0 0 0 0 0 0 0 0 0 0 0 0 0 0 0 0 127 0" result="hardAlpha"/>
<feOffset dy="2"/>
<feGaussianBlur stdDeviation="2"/>
<feComposite in2="hardAlpha" operator="out"/>
<feColorMatrix type="matrix" values="0 0 0 0 0 0 0 0 0 0 0 0 0 0 0 0 0 0 0.3 0"/>
<feBlend mode="normal" in2="BackgroundImageFix" result="effect1_dropShadow_276:5"/>
<feBlend mode="normal" in="SourceGraphic" in2="effect1_dropShadow_276:5" result="shape"/>
</filter>
</defs>
</svg>
